<svg id="图层_6" data-name="图层 6" xmlns="http://www.w3.org/2000/svg" viewBox="0 0 228.77 219.05"><defs><style>.cls-1{fill:#f7931f;}.cls-2{fill:#fff;}.cls-3{fill:#f49520;}</style></defs><title>bhd_logo</title><g id="图层_2" data-name="图层 2"><path class="cls-1" d="M37.89,95.9l94-79a25.22,25.22,0,0,1,15-5,19.11,19.11,0,0,1,14,6l70.9,85.42s6.48,7.08,6.48,15.58-7.37,15.25-7.37,15.25-98.44,84.31-104.25,88.75-9.29,8.54-18.25,8-16.67-10.5-16.67-10.5L29.89,144.9Z" transform="translate(-9.49 -11.9)"/></g><g id="图层_3" data-name="图层 3"><ellipse class="cls-2" cx="127.3" cy="120.87" rx="76.43" ry="63.86" transform="translate(-57.55 100.82) rotate(-40.85)"/></g><g id="图层_4" data-name="图层 4"><polygon class="cls-2" points="25.14 82.42 55.23 96 52.4 122.54 18.81 133.5 25.14 82.42"/></g><g id="图层_5" data-name="图层 5"><path class="cls-1" d="M9.89,120.9s0-4,6-10a46.68,46.68,0,0,1,13-9l46,19-51,19s-6,0-11-6A15.14,15.14,0,0,1,9.89,120.9Z" transform="translate(-9.49 -11.9)"/></g><g id="图层_10" data-name="图层 10"><g id="图层_8" data-name="图层 8"><path class="cls-3" d="M103.26,78c2.56-5.31,8.75-7.5,8.75-7.5l24.75.25s3.67-5.85,5.38-7.38A12.4,12.4,0,0,1,148.76,61c1.77.06,5.55,1.47,6.44,3s.56,6.88.56,6.88,10.38,1.13,12.92,2.83c2.28,1.53,3.79,1.83,6.83,10.17,1.25,3.44,1.07,11.06.25,14.63a31.54,31.54,0,0,1-4.37,8.62c-1.49,2-7.25,6.88-7.25,6.88s4.11,6.32,5.38,8.75c.79,1.53,2.43,6,2.5,7.69.21,5.19-2.23,12-3.46,14.77-1.75,3.91-7.21,11.84-12.23,15.48-8.44,6.13-15.31,6.94-15.31,6.94l-21.12.38s-2.93,6.26-4.62,7.75c-1.51,1.33-5.36,3.26-7.37,3.25s-6.21-1.55-7.25-3.25c-.93-1.52.38-7.12.38-7.12l-24.38-.25s-3.87-.62-2.62-8.75,7.5-9.75,7.5-9.75l6.63-.37,22.13-59.75s-6.41-2-7.62-3.75S101.26,82.18,103.26,78Z" transform="translate(-9.49 -11.9)"/></g><g id="图层_9" data-name="图层 9"><path class="cls-2" d="M127,89.77l26.69-.25a13.31,13.31,0,0,1,2.75,10.75c-1,6.81-7.12,10.5-7.12,10.5l-29-.12Z" transform="translate(-9.49 -11.9)"/><path class="cls-2" d="M115.93,126.75l34,.15s4,8.86,1.25,15.5c-2.19,5.25-7.87,7.5-7.87,7.5H108.2Z" transform="translate(-9.49 -11.9)"/></g></g></svg>