<svg id="svg" version="1.1" xmlns="http://www.w3.org/2000/svg" xmlns:xlink="http://www.w3.org/1999/xlink" width="400" height="400" viewBox="0, 0, 400,400"><g id="svgg"><path id="path0" d="M17.188 0.565 C 9.338 2.774,3.229 8.902,0.808 16.992 L -0.010 19.727 0.093 200.977 L 0.195 382.227 1.064 384.527 C 3.695 391.496,9.600 396.949,16.936 399.184 L 19.614 400.000 200.609 400.000 L 381.605 400.000 384.111 399.090 C 391.266 396.493,397.139 390.476,399.236 383.594 C 400.003 381.077,400.009 379.490,399.907 199.414 L 399.805 17.773 398.936 15.473 C 396.305 8.504,390.400 3.051,383.064 0.816 L 380.386 0.000 199.666 0.035 C 55.086 0.063,18.594 0.169,17.188 0.565 M28.508 19.629 C 31.157 20.982,31.856 22.208,31.737 25.292 C 31.411 33.727,21.398 36.206,17.928 28.711 C 15.051 22.498,22.167 16.389,28.508 19.629 M376.965 19.629 C 382.842 22.598,381.174 31.899,374.564 33.016 C 368.095 34.108,363.465 26.424,367.692 21.610 C 370.155 18.804,373.794 18.027,376.965 19.629 M214.478 35.766 C 328.957 46.640,397.457 170.690,345.937 273.828 C 339.821 286.072,326.343 306.043,324.788 305.169 C 322.289 303.765,308.996 290.697,304.474 285.200 C 302.171 282.402,301.296 281.850,299.551 282.097 C 295.308 282.697,294.890 309.011,298.837 327.119 L 299.682 330.997 298.767 331.707 C 260.920 361.069,207.228 372.016,159.570 360.086 C 75.275 338.984,21.476 255.898,36.943 170.703 C 52.192 86.714,129.805 27.723,214.478 35.766 M236.523 83.544 C 228.535 87.367,225.781 95.584,225.781 115.591 L 225.781 116.797 220.672 116.797 L 215.562 116.797 215.886 110.059 C 216.635 94.520,216.052 89.875,212.980 86.886 C 206.392 80.477,196.470 82.929,191.834 92.113 C 190.174 95.402,189.570 98.428,189.284 104.883 C 189.151 107.891,188.935 111.973,188.804 113.954 L 188.566 117.556 156.677 117.665 L 124.787 117.773 122.148 119.073 C 107.996 126.041,110.543 145.756,125.743 146.906 C 129.787 147.212,131.245 148.094,131.879 150.617 C 132.203 151.910,122.796 251.629,122.157 253.676 C 121.414 256.055,120.173 256.721,115.882 257.046 C 104.142 257.934,98.038 268.355,103.143 278.792 C 106.468 285.589,105.501 285.412,142.438 285.967 C 159.380 286.221,173.318 286.497,173.412 286.580 C 173.505 286.664,173.380 290.904,173.134 296.003 C 172.494 309.290,173.260 313.637,176.791 316.744 C 184.750 323.751,196.835 317.873,199.169 305.859 C 199.552 303.889,200.388 291.120,200.390 287.207 L 200.391 285.547 205.508 285.547 L 210.625 285.547 210.293 292.676 C 209.465 310.449,210.552 315.016,216.280 317.828 C 222.644 320.953,230.366 317.721,234.284 310.293 C 235.958 307.120,236.478 304.509,237.896 292.188 C 238.551 286.494,239.164 281.474,239.258 281.032 C 239.384 280.446,240.043 280.038,241.688 279.526 C 290.115 264.477,315.760 215.026,299.841 167.387 C 292.500 145.416,276.133 128.938,254.006 121.238 C 250.827 120.132,250.787 120.102,250.981 118.945 C 253.355 104.791,253.751 94.139,252.085 89.249 C 250.136 83.528,242.447 80.709,236.523 83.544 M221.366 145.925 C 236.222 149.765,246.976 156.746,254.738 167.588 C 278.193 200.353,257.964 246.766,217.216 253.673 C 214.097 254.201,209.555 254.297,187.518 254.297 C 159.077 254.297,160.227 254.388,159.341 252.059 C 158.922 250.957,168.485 148.571,169.158 146.953 C 170.134 144.609,170.763 144.549,194.413 144.540 L 215.974 144.531 221.366 145.925 M313.256 303.472 C 320.156 310.268,324.902 313.876,331.546 317.376 C 350.560 327.390,354.721 332.154,354.773 343.966 C 354.787 347.140,354.643 347.866,353.371 351.046 C 351.432 355.891,351.442 357.700,353.418 359.523 C 356.096 361.993,356.975 362.525,362.002 364.716 C 367.764 367.228,367.995 367.373,365.625 366.999 C 349.248 364.414,332.273 349.483,320.832 327.598 C 318.638 323.401,317.568 322.277,316.247 322.783 C 312.818 324.100,321.141 343.452,329.718 354.102 C 331.102 355.820,332.726 357.887,333.327 358.694 L 334.419 360.162 332.451 359.387 C 311.707 351.210,300.288 328.451,302.357 299.409 C 302.895 291.861,302.687 292.069,305.952 295.821 C 307.485 297.582,310.772 301.026,313.256 303.472 M28.351 369.100 C 31.197 370.393,32.752 373.387,32.266 376.634 C 30.966 385.297,18.028 384.425,17.977 375.671 C 17.946 370.273,23.369 366.838,28.351 369.100 M377.438 369.417 C 383.231 372.801,380.320 382.824,373.548 382.810 C 367.368 382.798,364.036 376.068,367.678 370.954 C 369.483 368.418,374.401 367.644,377.438 369.417 " stroke="none" fill="#64b4ac" fill-rule="evenodd"></path><path id="path1" d="" stroke="none" fill="#68b4ac" fill-rule="evenodd"></path><path id="path2" d="" stroke="none" fill="#68b4ac" fill-rule="evenodd"></path><path id="path3" d="" stroke="none" fill="#68b4ac" fill-rule="evenodd"></path><path id="path4" d="" stroke="none" fill="#68b4ac" fill-rule="evenodd"></path></g></svg>